<svg width="100" height="132" viewBox="0 0 100 132" fill="none" xmlns="http://www.w3.org/2000/svg">
<path d="M83.76 131.605H16.76C13.76 131.605 11.26 129.505 10.76 126.505L0.0600002 63.9045C-0.14 62.8045 0.159998 61.6045 0.959998 60.8045C1.66 59.9045 2.76 59.4045 3.96 59.4045H95.26C96.36 59.4045 97.46 59.9045 98.16 60.7045C98.86 61.6045 99.26 62.7045 99.06 63.8045L89.96 126.305C89.46 129.405 86.86 131.605 83.76 131.605ZM3.76 61.0045C3.06 61.0045 2.46 61.3045 1.96 61.8045C1.56 62.3045 1.36 63.0045 1.46 63.7045L12.16 126.305C12.56 128.505 14.46 130.105 16.66 130.105H83.66C85.86 130.105 87.86 128.405 88.16 126.205L97.26 63.7045C97.36 63.0045 97.16 62.4045 96.76 61.9045C96.36 61.4045 95.66 61.1045 95.06 61.1045H3.76V61.0045Z" fill="black"/>
<path d="M28.86 93.2045C28.66 93.2045 28.36 93.1045 28.26 92.9045L26.16 90.0045C26.06 89.8045 25.96 89.7045 26.06 89.5045C26.06 89.3045 27.96 67.2045 31.66 45.2045C36.66 15.0045 42.26 0.204477 48.76 0.00447695C53.16 -0.195523 57.36 6.30448 61.76 19.7045C66.56 34.5045 71.46 57.9045 76.46 89.4045C76.46 89.6045 76.46 89.9045 76.26 90.1045L73.36 93.0045C73.06 93.3045 72.66 93.3045 72.26 93.1045L69.26 90.7045C69.06 90.6045 68.96 90.4045 68.96 90.2045C65.06 59.5045 61.26 36.6045 57.56 22.2045C53.46 6.20448 50.46 3.90448 48.96 3.90448C47.06 4.00448 42.16 8.30448 37.26 46.9045C34.56 68.4045 33.06 90.1045 33.06 90.3045C33.06 90.6045 32.86 90.8045 32.66 90.9045L29.26 93.0045C29.16 93.1045 28.96 93.2045 28.86 93.2045ZM27.56 89.2045L29.06 91.3045L31.56 89.8045C31.76 86.7045 33.16 66.6045 35.76 46.7045C37.36 34.0045 39.16 23.9045 40.96 16.6045C43.46 6.90448 45.96 2.30448 48.96 2.20448H49.06C53.56 2.20448 60.56 11.6045 70.46 89.5045L72.66 91.2045L74.76 89.1045C69.76 57.9045 64.86 34.6045 60.16 20.0045C55.16 4.40448 51.16 1.30448 48.76 1.40448C45.66 1.50448 39.46 7.40448 33.16 45.3045C29.66 65.9045 27.76 86.5045 27.56 89.2045Z" fill="black"/>
<path d="M34.46 72.6046H28.36C26.86 72.6046 25.66 71.4046 25.66 69.9046C25.66 68.4046 26.86 67.2046 28.36 67.2046H34.46C35.96 67.2046 37.16 68.4046 37.16 69.9046C37.16 71.4046 35.96 72.6046 34.46 72.6046Z" fill="#902551"/>
<path d="M72.96 72.6046H66.86C65.36 72.6046 64.16 71.4046 64.16 69.9046C64.16 68.4046 65.36 67.2046 66.86 67.2046H72.96C74.46 67.2046 75.66 68.4046 75.66 69.9046C75.66 71.4046 74.46 72.6046 72.96 72.6046Z" fill="#902551"/>
</svg>
