<svg width="83" height="125" viewBox="0 0 83 125" fill="none" xmlns="http://www.w3.org/2000/svg">
<path d="M41.786 21.7922C63.1191 21.7922 80.4382 39.1114 80.4382 60.4444V115.302C80.4382 119.927 76.6829 123.688 72.0522 123.688H11.5148C6.88911 123.688 3.12885 119.932 3.12885 115.302V60.4444C3.12885 39.1114 20.448 21.7922 41.781 21.7922H41.786Z" stroke="black" stroke-width="2" stroke-miterlimit="10"/>
<path d="M39.6522 16.1072H43.3478C64.6809 16.1072 82 33.4263 82 54.7594V115.297C82 119.922 78.2447 123.683 73.614 123.683H9.386C4.76027 123.683 1 119.927 1 115.297V54.7594C1 33.4313 18.3191 16.1072 39.6522 16.1072Z" stroke="black" stroke-width="2" stroke-miterlimit="10"/>
<path d="M54.1502 17.6378L54.1461 17.6338" stroke="black" stroke-width="2" stroke-miterlimit="10"/>
<path d="M30.2018 17.1015C30.2018 10.8642 35.2602 5.30835 41.4975 5.30835C47.7348 5.30835 52.7932 10.8642 52.7932 17.1015" stroke="black" stroke-width="2" stroke-miterlimit="10"/>
<path d="M20.6171 21.1157C20.4231 20.9665 20.259 20.7725 20.1247 20.5487L11.5248 5.82594C10.7538 4.51283 11.5845 2.83663 13.1015 2.65259L26.4913 1.01618C27.3319 0.911726 28.1526 1.31959 28.5803 2.05075L32.8429 9.34746" stroke="black" stroke-width="2" stroke-miterlimit="10"/>
<path d="M11.4104 3.9209L7.87891 32.7447" stroke="black" stroke-width="2" stroke-miterlimit="10"/>
<path d="M62.8207 21.4441C63.0146 21.2949 63.1788 21.1009 63.3131 20.8771L71.913 6.15431C72.6839 4.8412 71.8533 3.165 70.3362 2.98096L56.9465 1.34455C56.1059 1.2401 55.2852 1.64796 54.8574 2.37912L50.4506 9.91955" stroke="black" stroke-width="2" stroke-miterlimit="10"/>
<path d="M72.0223 4.24927L75.5936 33.3864" stroke="black" stroke-width="2" stroke-miterlimit="10"/>
<path d="M66.5859 73.1675H16.5435C13.247 73.1675 10.5748 75.8398 10.5748 79.1362V110.541C10.5748 113.838 13.247 116.51 16.5435 116.51H66.5859C69.8823 116.51 72.5546 113.838 72.5546 110.541V79.1362C72.5546 75.8398 69.8823 73.1675 66.5859 73.1675Z" stroke="black" stroke-width="2" stroke-miterlimit="10"/>
<path d="M35.6681 16.3108C35.6681 16.3108 34.35 11.6105 35.4592 7.2583" stroke="black" stroke-width="2" stroke-miterlimit="10"/>
<path d="M47.6054 16.1616C47.6054 16.1616 48.4261 11.4613 47.317 7.10913" stroke="black" stroke-width="2" stroke-miterlimit="10"/>
<path d="M35.1608 13.4258C35.1608 13.4258 41.8656 10.6753 47.8591 13.4457" stroke="black" stroke-width="2" stroke-miterlimit="10"/>
<path d="M10.5748 89.0095C10.5748 89.0095 14.5738 91.4617 17.3442 91.5661H63.706C63.706 91.5661 71.5946 90.6061 72.5546 89.0095" stroke="black" stroke-width="2" stroke-miterlimit="10"/>
<path d="M18.732 91.566V97.3805C18.732 98.1714 18.0854 98.818 17.2946 98.818C16.5037 98.818 15.8571 98.1714 15.8571 97.3805V91.4417C15.8571 91.4069 15.8571 91.3671 15.8621 91.3323" fill="#902551"/>
<path d="M18.732 91.566V97.3805C18.732 98.1714 18.0854 98.818 17.2946 98.818C16.5037 98.818 15.8571 98.1714 15.8571 97.3805V91.4417C15.8571 91.4069 15.8571 91.3671 15.8621 91.3323" stroke="black" stroke-miterlimit="10"/>
</svg>
