<svg width="137" height="102" viewBox="0 0 137 102" fill="none" xmlns="http://www.w3.org/2000/svg">
<path fill-rule="evenodd" clip-rule="evenodd" d="M23.1663 25.9246H113.501V26.5554L114.098 26.3584L136.121 93.1349L135.458 93.2975L135.307 92.684C135.458 93.2975 135.458 93.2976 135.457 93.2977L135.434 93.3034C135.418 93.3072 135.395 93.3128 135.364 93.3202C135.329 93.3286 135.284 93.3394 135.23 93.3523C135.189 93.362 135.143 93.3729 135.092 93.3851C134.852 93.4418 134.496 93.5247 134.031 93.6302C133.1 93.8412 131.733 94.1422 129.983 94.5033C126.482 95.2254 121.446 96.1879 115.303 97.1501C103.02 99.0744 86.299 101 68.5607 101C50.8223 101 34.1012 99.0744 21.8179 97.1501C15.6751 96.1879 10.6397 95.2254 7.13861 94.5033C5.38802 94.1422 4.0209 93.8412 3.09063 93.6302C2.62549 93.5247 2.26955 93.4418 2.02948 93.3851C1.90945 93.3567 1.81838 93.3349 1.75711 93.3202C1.72648 93.3128 1.7033 93.3072 1.68767 93.3034L1.66406 93.2977C1.66374 93.2976 1.66355 93.2975 1.81391 92.684L1.66355 93.2975L1 93.1349L23.1663 25.9246ZM2.62946 92.228C2.83189 92.2752 3.07931 92.3321 3.37006 92.3981C4.2928 92.6073 5.65184 92.9066 7.39383 93.2659C10.8779 93.9846 15.8933 94.9432 22.0134 95.9019C34.2557 97.8198 50.908 99.7364 68.5607 99.7364C86.2134 99.7364 102.866 97.8198 115.108 95.9019C121.228 94.9432 126.243 93.9846 129.728 93.2659C131.47 92.9066 132.829 92.6073 133.751 92.3981C134.042 92.3321 134.289 92.2752 134.492 92.228L113.041 27.188H24.08L2.62946 92.228Z" fill="black" stroke="black" stroke-miterlimit="10"/>
<path fill-rule="evenodd" clip-rule="evenodd" d="M50.8643 26.71C50.8643 26.71 50.8643 26.7099 50.2515 26.5566C49.6386 26.4032 49.6387 26.4029 49.6388 26.4025L49.6391 26.4013L49.6402 26.397L49.6441 26.3817C49.6475 26.3686 49.6524 26.3496 49.6589 26.3248C49.6719 26.2752 49.6912 26.2028 49.717 26.109C49.7686 25.9214 49.8463 25.6483 49.9516 25.3019C50.162 24.6092 50.483 23.6227 50.9268 22.4401C51.8138 20.0769 53.1953 16.9206 55.173 13.7591C59.1171 7.45408 65.5211 1 75.1991 1C84.8857 1 91.0027 7.46431 94.6601 13.7775C96.4933 16.9417 97.7297 20.1004 98.5077 22.4646C98.8971 23.6478 99.1726 24.6349 99.3512 25.328C99.4405 25.6746 99.5055 25.9479 99.5485 26.1356C99.57 26.2295 99.586 26.302 99.5967 26.3516C99.5994 26.3641 99.6018 26.3751 99.6038 26.3847C99.6058 26.3941 99.6075 26.4022 99.6089 26.4087L99.6121 26.424L99.613 26.4283L99.6132 26.4296C99.6133 26.43 99.6134 26.4303 98.9944 26.5566C98.3755 26.6828 98.3755 26.6829 98.3755 26.683L98.3754 26.6826L98.3749 26.68L98.3724 26.6683C98.3702 26.6575 98.3666 26.6408 98.3618 26.6185C98.3521 26.5738 98.3373 26.5063 98.317 26.4177C98.2764 26.2403 98.214 25.9781 98.1277 25.6432C97.9551 24.9732 97.6872 24.013 97.3076 22.8595C96.5477 20.5504 95.3437 17.4778 93.5669 14.4108C90.0044 8.26154 84.2237 2.26343 75.1991 2.26343C66.1657 2.26343 60.0959 8.27177 56.2441 14.4292C54.3238 17.4989 52.9768 20.5738 52.1097 22.884C51.6765 24.0381 51.3641 24.9988 51.1604 25.6692C51.0586 26.0044 50.984 26.2667 50.9351 26.4443C50.9107 26.533 50.8927 26.6006 50.881 26.6453C50.8751 26.6677 50.8708 26.6844 50.868 26.6953L50.865 26.7071L50.8643 26.71Z" fill="black" stroke="black" stroke-miterlimit="10"/>
<path fill-rule="evenodd" clip-rule="evenodd" d="M38.7428 26.71C38.7428 26.71 38.7428 26.7099 38.13 26.5566C37.5172 26.4032 37.5173 26.4029 37.5174 26.4025L37.5177 26.4013L37.5188 26.397L37.5226 26.3817C37.526 26.3686 37.5309 26.3496 37.5374 26.3248C37.5504 26.2752 37.5697 26.2028 37.5955 26.109C37.6472 25.9214 37.7248 25.6483 37.8301 25.3019C38.0405 24.6093 38.3615 23.6227 38.8053 22.4401C39.6922 20.0769 41.0737 16.9206 43.0512 13.7591C46.995 7.45413 53.3983 1 63.0751 1C72.7605 1 78.8775 7.46434 82.5352 13.7775C84.3685 16.9417 85.6051 20.1003 86.3834 22.4645C86.7729 23.6478 87.0485 24.6349 87.2271 25.3279C87.3164 25.6746 87.3815 25.9478 87.4245 26.1356C87.446 26.2295 87.462 26.302 87.4727 26.3516C87.4781 26.3764 87.4821 26.3955 87.4849 26.4087L87.4881 26.424L87.4892 26.4295C87.4893 26.4299 87.4894 26.4303 86.8704 26.5566C86.2515 26.6829 86.2515 26.683 86.2515 26.683L86.2514 26.6826L86.2509 26.6801L86.2485 26.6684C86.2462 26.6576 86.2427 26.6409 86.2378 26.6185C86.2282 26.5738 86.2133 26.5064 86.193 26.4177C86.1523 26.2404 86.0899 25.9781 86.0036 25.6432C85.831 24.9732 85.563 24.0131 85.1833 22.8596C84.4232 20.5504 83.2189 17.4778 81.442 14.4108C77.8792 8.26151 72.0985 2.26343 63.0751 2.26343C54.043 2.26343 47.9738 8.27173 44.1223 14.4291C42.2021 17.4989 40.8552 20.5738 39.9882 22.884C39.555 24.0381 39.2426 24.9988 39.0389 25.6692C38.9371 26.0043 38.8625 26.2667 38.8137 26.4443C38.7893 26.533 38.7713 26.6006 38.7595 26.6453C38.7536 26.6677 38.7493 26.6844 38.7466 26.6953L38.7436 26.7071L38.7429 26.7096L38.7428 26.71Z" fill="black" stroke="black" stroke-miterlimit="10"/>
<rect x="41" y="47" width="56" height="5" fill="#902551"/>
</svg>
