<svg width="128" height="72" viewBox="0 0 128 72" fill="none" xmlns="http://www.w3.org/2000/svg">
<path fill-rule="evenodd" clip-rule="evenodd" d="M7.77223 2.52459C4.87404 2.52459 2.52459 4.87404 2.52459 7.77223V64.2278C2.52459 67.126 4.87404 69.4754 7.77223 69.4754H120.506C123.405 69.4754 125.754 67.126 125.754 64.2278V7.77223C125.754 4.87404 123.405 2.52459 120.506 2.52459H7.77223ZM1 7.77223C1 4.03203 4.03203 1 7.77223 1H120.506C124.247 1 127.279 4.03203 127.279 7.77223V64.2278C127.279 67.968 124.247 71 120.506 71H7.77223C4.03203 71 1 67.968 1 64.2278V7.77223Z" fill="#333333" stroke="black" stroke-width="1.25" stroke-miterlimit="10"/>
<path fill-rule="evenodd" clip-rule="evenodd" d="M21.3624 51.5738C12.9322 51.5738 5.50372 47.2916 1.12982 40.7905L2.39477 39.9395C6.49759 46.0376 13.4612 50.0492 21.3624 50.0492H107.828C115.187 50.0492 121.734 46.5715 125.913 41.1642L127.12 42.0966C122.664 47.8615 115.679 51.5738 107.828 51.5738H21.3624Z" fill="#333333" stroke="black" stroke-width="1.25" stroke-miterlimit="10"/>
<circle cx="64.5" cy="50.5" r="11.5" fill="#902551"/>
</svg>
