<svg width="103" height="100" viewBox="0 0 103 100" fill="none" xmlns="http://www.w3.org/2000/svg">
<path fill-rule="evenodd" clip-rule="evenodd" d="M51.1237 1.83284C34.2609 1.83284 20.5916 15.504 20.5916 32.3669H19.5923C19.5923 14.9522 33.7089 0.833496 51.1237 0.833496C68.5385 0.833496 82.6571 14.9521 82.6571 32.3669H81.6578C81.6578 15.5041 67.9866 1.83284 51.1237 1.83284Z" fill="black"/>
<path fill-rule="evenodd" clip-rule="evenodd" d="M18.7593 32.3665C18.7593 14.4917 33.2489 0 51.1238 0C68.9987 0 83.4904 14.4916 83.4904 32.3665V33.1996H80.8248V32.3665C80.8248 15.9638 67.5266 2.66551 51.1238 2.66551C34.7212 2.66551 21.4249 15.9636 21.4249 32.3665V33.1996H18.7593V32.3665Z" fill="black"/>
<path fill-rule="evenodd" clip-rule="evenodd" d="M1.10394 31.8667H101.146L81.9511 99.1668H20.2986L1.10394 31.8667ZM2.42817 32.866L21.0528 98.1674H81.1969L99.8215 32.866H2.42817Z" fill="black"/>
<path fill-rule="evenodd" clip-rule="evenodd" d="M0 31.0337H102.25L82.5797 99.9999H19.6699L0 31.0337ZM3.53204 33.6992L21.6815 97.3344H80.5682L98.7176 33.6992H3.53204Z" fill="black"/>
<circle cx="51.0584" cy="55.0582" r="14" transform="rotate(19.9285 51.0584 55.0582)" fill="#902551" stroke="#902551" stroke-width="2"/>
<circle cx="51.0996" cy="53.4776" r="13.5" transform="rotate(19.9285 51.0996 53.4776)" fill="#FBF1F0"/>
</svg>
