<svg width="153" height="101" viewBox="0 0 153 101" fill="none" xmlns="http://www.w3.org/2000/svg">
<mask id="path-1-inside-1_331_279" fill="white">
<path fill-rule="evenodd" clip-rule="evenodd" d="M118.119 33.2792H33.9237C15.9158 33.2792 1.31753 47.8775 1.31753 65.8853V67.0764C1.31753 85.0843 15.9158 99.6825 33.9237 99.6825H118.119C136.127 99.6825 150.725 85.0843 150.725 67.0764V65.8853C150.725 47.8775 136.127 33.2792 118.119 33.2792ZM33.9237 31.9617C15.1882 31.9617 0 47.1498 0 65.8853V67.0764C0 85.8119 15.1881 101 33.9237 101H118.119C136.854 101 152.043 85.8119 152.043 67.0764V65.8853C152.043 47.1498 136.854 31.9617 118.119 31.9617H33.9237Z"/>
</mask>
<path fill-rule="evenodd" clip-rule="evenodd" d="M118.119 33.2792H33.9237C15.9158 33.2792 1.31753 47.8775 1.31753 65.8853V67.0764C1.31753 85.0843 15.9158 99.6825 33.9237 99.6825H118.119C136.127 99.6825 150.725 85.0843 150.725 67.0764V65.8853C150.725 47.8775 136.127 33.2792 118.119 33.2792ZM33.9237 31.9617C15.1882 31.9617 0 47.1498 0 65.8853V67.0764C0 85.8119 15.1881 101 33.9237 101H118.119C136.854 101 152.043 85.8119 152.043 67.0764V65.8853C152.043 47.1498 136.854 31.9617 118.119 31.9617H33.9237Z" fill="black"/>
<path d="M33.9237 38.2792H118.119V28.2792H33.9237V38.2792ZM6.31753 65.8853C6.31753 50.6389 18.6772 38.2792 33.9237 38.2792V28.2792C13.1544 28.2792 -3.68247 45.116 -3.68247 65.8853H6.31753ZM6.31753 67.0764V65.8853H-3.68247V67.0764H6.31753ZM33.9237 94.6825C18.6772 94.6825 6.31753 82.3228 6.31753 67.0764H-3.68247C-3.68247 87.8457 13.1544 104.683 33.9237 104.683V94.6825ZM118.119 94.6825H33.9237V104.683H118.119V94.6825ZM145.725 67.0764C145.725 82.3228 133.365 94.6825 118.119 94.6825V104.683C138.888 104.683 155.725 87.8457 155.725 67.0764H145.725ZM145.725 65.8853V67.0764H155.725V65.8853H145.725ZM118.119 38.2792C133.365 38.2792 145.725 50.6389 145.725 65.8853H155.725C155.725 45.116 138.888 28.2792 118.119 28.2792V38.2792ZM5 65.8853C5 49.9112 17.9496 36.9617 33.9237 36.9617V26.9617C12.4267 26.9617 -5 44.3884 -5 65.8853H5ZM5 67.0764V65.8853H-5V67.0764H5ZM33.9237 96.0001C17.9496 96.0001 5 83.0505 5 67.0764H-5C-5 88.5733 12.4267 106 33.9237 106V96.0001ZM118.119 96.0001H33.9237V106H118.119V96.0001ZM147.043 67.0764C147.043 83.0505 134.093 96.0001 118.119 96.0001V106C139.616 106 157.043 88.5733 157.043 67.0764H147.043ZM147.043 65.8853V67.0764H157.043V65.8853H147.043ZM118.119 36.9617C134.093 36.9617 147.043 49.9112 147.043 65.8853H157.043C157.043 44.3884 139.616 26.9617 118.119 26.9617V36.9617ZM33.9237 36.9617H118.119V26.9617H33.9237V36.9617Z" fill="black" mask="url(#path-1-inside-1_331_279)"/>
<path d="M32.8749 54.2338V60.0483C32.8749 60.8391 32.2283 61.4857 31.4375 61.4857C30.6466 61.4857 30 60.8391 30 60.0483V54.1094C30 54.0746 30 54.0348 30.005 54" fill="#902551"/>
<path d="M32.8749 54.2338V60.0483C32.8749 60.8391 32.2283 61.4857 31.4375 61.4857C30.6466 61.4857 30 60.8391 30 60.0483V54.1094C30 54.0746 30 54.0348 30.005 54" stroke="black" stroke-miterlimit="10"/>
<path fill-rule="evenodd" clip-rule="evenodd" d="M108.409 33.2373L43.2835 33.2373V23.5008C43.2835 11.0816 53.365 1.00006 65.7842 1.00006L85.9081 1.00006C98.3273 1.00006 108.409 11.0816 108.409 23.5008V33.2373ZM107.091 31.9198V23.5008C107.091 11.8092 97.5996 2.31759 85.9081 2.31759H65.7842C54.0926 2.31759 44.601 11.8092 44.601 23.5008V31.9198L107.091 31.9198Z" fill="black" stroke="black" stroke-width="1.5" stroke-miterlimit="10"/>
<line x1="31" y1="53.5" x2="119" y2="53.5" stroke="black" stroke-dasharray="2 2"/>
</svg>
