<svg width="106" height="151" viewBox="0 0 106 151" fill="none" xmlns="http://www.w3.org/2000/svg">
<path fill-rule="evenodd" clip-rule="evenodd" d="M6.551 93.8727C4.17544 93.8727 2.24966 95.7985 2.24966 98.1741V144.449C2.24966 146.825 4.17544 148.75 6.551 148.75H98.9561C101.332 148.75 103.257 146.825 103.257 144.449V98.1741C103.257 95.7985 101.332 93.8727 98.9561 93.8727H6.551ZM1 98.1741C1 95.1083 3.48527 92.623 6.551 92.623H98.9561C102.022 92.623 104.507 95.1083 104.507 98.1741V144.449C104.507 147.515 102.022 150 98.9561 150H6.551C3.48527 150 1 147.515 1 144.449V98.1741Z" fill="#333333" stroke="black" stroke-width="1.25" stroke-miterlimit="10"/>
<path fill-rule="evenodd" clip-rule="evenodd" d="M17.6905 134.077C10.7806 134.077 4.6916 130.567 1.10645 125.238L2.14328 124.541C5.50625 129.539 11.2141 132.827 17.6905 132.827H88.5639C94.5957 132.827 99.9622 129.977 103.388 125.545L104.377 126.309C100.724 131.034 94.9988 134.077 88.5639 134.077H17.6905Z" fill="#333333" stroke="black" stroke-width="1.25" stroke-miterlimit="10"/>
<path d="M48.541 125.41H57.5574V138.935C57.5574 141.424 55.539 143.443 53.0492 143.443C50.5594 143.443 48.541 141.424 48.541 138.935V125.41Z" fill="#902551"/>
<path d="M48.541 125.41H57.5574V138.935C57.5574 141.424 55.539 143.443 53.0492 143.443C50.5594 143.443 48.541 141.424 48.541 138.935V125.41Z" stroke="black"/>
<mask id="path-4-inside-1_267_2870" fill="white">
<path d="M9.19672 43.8524C9.19672 19.6334 28.8301 0 53.0492 0C77.2682 0 96.9016 19.6334 96.9016 43.8525V92.6229H9.19672V43.8524Z"/>
</mask>
<path d="M6.69672 43.8525C6.69672 18.2527 27.4494 -2.5 53.0492 -2.5C78.6489 -2.5 99.4016 18.2527 99.4016 43.8525H94.4016C94.4016 21.0141 75.8875 2.5 53.0492 2.5C30.2108 2.5 11.6967 21.0141 11.6967 43.8525H6.69672ZM96.9016 92.6229H9.19672H96.9016ZM6.69672 92.6229V43.8525C6.69672 18.2527 27.4494 -2.5 53.0492 -2.5V2.5C30.2108 2.5 11.6967 21.0141 11.6967 43.8525V92.6229H6.69672ZM53.0492 -2.5C78.6489 -2.5 99.4016 18.2527 99.4016 43.8525V92.6229H94.4016V43.8525C94.4016 21.0141 75.8875 2.5 53.0492 2.5V-2.5Z" fill="black" mask="url(#path-4-inside-1_267_2870)"/>
</svg>
