<svg width="311" height="32" viewBox="0 0 311 32" fill="none" xmlns="http://www.w3.org/2000/svg">
<path d="M32.1247 1.09074H32.9263L33.1463 13.915H32.4233C31.9361 12.3642 31.4803 11.1445 31.056 10.2211C30.6316 9.29757 30.1759 8.49606 29.6729 7.79909C28.2584 5.77787 26.4667 4.17484 24.3136 2.98999C22.1447 1.80513 19.9286 1.23013 17.6497 1.23013C16.471 1.23013 15.2922 1.43922 14.1135 1.87483C12.9348 2.31044 11.9918 2.86802 11.2688 3.58241C10.0743 4.76726 9.19421 6.38772 8.65984 8.46121C8.12548 10.5347 7.84258 13.2006 7.84258 16.4764C7.84258 17.4521 7.88973 18.4279 7.96831 19.3862C8.06261 20.3446 8.17263 21.1984 8.31408 21.9476C8.45553 22.6968 8.64413 23.4287 8.84844 24.1431C9.06847 24.8575 9.30422 25.4499 9.57141 25.9029C10.0272 26.6347 10.5301 27.2794 11.0959 27.837C11.6617 28.3946 12.3375 28.865 13.1076 29.2832C13.8778 29.7014 14.695 29.9976 15.5751 30.1893C16.4553 30.381 17.3511 30.4681 18.3098 30.4681C19.5357 30.4681 20.7616 30.3113 21.9875 30.015C23.2134 29.7014 24.2036 29.3181 24.958 28.8128C26.3882 27.8544 27.1111 26.565 27.1111 24.9446V23.4112C27.1111 19.8044 25.2723 18.0097 21.6103 18.0097H18.9856V17.2256H39.7001V18.0097H39.0086C37.1383 18.0097 35.7552 18.4453 34.8594 19.334C33.9478 20.2226 33.5078 21.5817 33.5078 23.4112V30.381H32.7062C32.0618 29.7885 31.4961 29.3878 31.0088 29.1961C30.5216 29.0044 29.9244 28.8999 29.2014 28.8999C28.5728 28.8999 27.9755 28.9522 27.4412 29.0741C26.9068 29.1961 26.1367 29.4575 25.178 29.8582C23.6063 30.4158 22.349 30.7817 21.4217 30.9734C20.4944 31.1651 19.3628 31.2696 18.0112 31.2696C15.4651 31.2696 13.0919 30.8863 10.8916 30.137C8.69128 29.3878 6.77385 28.3249 5.13933 26.931C3.5048 25.537 2.24747 23.9165 1.35163 22.0522C0.455781 20.1878 0 18.1665 0 16.0059C0 14.6991 0.172882 13.4097 0.518648 12.1377C0.864413 10.8658 1.36734 9.68091 2.01172 8.6006C2.6561 7.50287 3.47337 6.47484 4.43208 5.49908C5.56367 4.40135 6.80528 3.47787 8.15691 2.72862C9.50854 1.97938 10.9387 1.40438 12.4475 0.986193C13.9563 0.56801 15.4651 0.376343 16.9739 0.376343C18.4827 0.376343 19.9444 0.56801 21.3903 0.93392C22.8362 1.29983 24.4079 1.90968 26.121 2.74605C27.4097 3.39074 28.3056 3.70438 28.8242 3.70438C29.3429 3.70438 29.8772 3.49529 30.3959 3.09453C30.9145 2.67635 31.4803 2.01423 32.0933 1.09074H32.1247Z" fill="#3C152B"/>
<path d="M40.2816 0.916504H60.9332V1.7006H58.7486C56.8783 1.7006 55.511 2.1362 54.6152 3.02484C53.7193 3.89606 53.2635 5.27258 53.2635 7.10213V29.8408H61.1061C62.6463 29.8408 64.108 29.5098 65.491 28.8302C66.8584 28.1507 68.0528 27.2097 69.0744 26.0075C69.6874 25.2582 70.2217 24.509 70.6775 23.7772C71.1333 23.0453 71.5734 22.1393 71.9977 21.0938C72.422 20.0484 72.8307 18.8461 73.2393 17.4696H74.0409V30.6075H40.2973L40.2502 29.8234H41.3818C45.0437 29.8234 46.8826 28.0113 46.8826 24.387V7.10213C46.8826 3.4953 45.0437 1.7006 41.3818 1.7006H40.2973V0.916504H40.2816Z" fill="#3C152B"/>
<path d="M92.9792 0.324097H93.7808L105.961 26.3211C106.354 27.1226 106.794 27.8022 107.266 28.3249C107.753 28.8476 108.303 29.231 108.9 29.4575C109.513 29.684 110.22 29.806 111.053 29.806H111.855V30.6424H94.2837V29.806H96.5783C97.7256 29.806 98.5586 29.6492 99.0773 29.353C99.6116 29.0393 99.8631 28.5689 99.8631 27.9416C99.8631 27.5408 99.7531 27.0704 99.5488 26.4954C99.3445 25.9204 98.873 24.8923 98.1657 23.4113C98.1186 23.3242 98.0557 23.1848 97.9771 22.9931C97.8828 22.8014 97.7885 22.6098 97.6942 22.4181L97.1913 21.3378H84.3665L83.3921 23.5507C83.0778 24.2999 82.9206 25.0666 82.9206 25.8333C82.9206 26.4779 83.1092 27.1226 83.4707 27.7673C83.8479 28.412 84.3194 28.8825 84.9166 29.2136C85.3095 29.4401 85.6553 29.5969 85.9696 29.6666C86.284 29.7363 86.724 29.806 87.3055 29.8234V30.6598H74.968V29.8234C75.8639 29.7189 76.5711 29.562 77.1055 29.353C77.6398 29.1439 78.2214 28.778 78.8657 28.2901C80.3902 27.1226 81.899 24.9446 83.3607 21.7211L92.9792 0.324097ZM90.6846 7.27639L84.7437 20.5188H96.7669L90.6689 7.27639H90.6846Z" fill="#3C152B"/>
<path d="M112.515 0.916504H125.167L136.561 23.6552L147.893 0.916504H159.838V1.7006H158.738C156.867 1.7006 155.484 2.1362 154.588 3.02484C153.693 3.91348 153.237 5.27257 153.237 7.10212V24.387C153.237 26.1991 153.693 27.5582 154.604 28.4469C155.516 29.3355 156.899 29.7885 158.738 29.7885H159.838V30.6249H140.271V29.7885H141.575C143.43 29.7885 144.797 29.3529 145.708 28.4643C146.604 27.5757 147.06 26.2166 147.06 24.387V4.19227H146.966L133.968 30.6249H133.23L120.075 4.27939H119.98V23.4461C119.98 24.7703 120.248 25.9029 120.766 26.8438C121.285 27.7847 122.055 28.4817 123.061 28.987C124.067 29.4923 125.293 29.7711 126.739 29.806V30.6423H112.515V29.806H112.814C114.763 29.806 116.303 29.2484 117.403 28.1332C118.519 27.0181 119.069 25.5022 119.069 23.5855V7.10212C119.069 5.25515 118.613 3.89606 117.733 3.02484C116.837 2.15363 115.454 1.7006 113.568 1.7006H112.499V0.916504H112.515Z" fill="#3C152B"/>
<path d="M189.589 1.4915H190.344V11.6847H189.589C188.678 9.22788 187.641 7.31121 186.493 5.93469C185.66 4.97635 184.607 4.12256 183.334 3.39074C182.077 2.65892 180.647 2.08392 179.091 1.66574C177.519 1.24756 175.932 1.03846 174.329 1.03846C173.134 1.03846 172.065 1.19528 171.122 1.52634C170.179 1.85741 169.394 2.32786 168.733 2.97256C168.278 3.42559 167.9 3.9309 167.633 4.5059C167.366 5.0809 167.225 5.62105 167.225 6.14378C167.225 7.13696 167.618 7.99075 168.403 8.72257C168.765 9.07106 169.284 9.41955 169.959 9.75061C170.635 10.0817 171.5 10.3953 172.568 10.7089C173.637 11.0226 175.114 11.4059 177.016 11.8589C177.535 12.0158 177.896 12.1029 178.085 12.1377L179.154 12.3991L180.851 12.8173C183.711 13.5491 185.802 14.1764 187.122 14.734C188.442 15.2915 189.558 16.0233 190.485 16.9294C191.208 17.5915 191.774 18.3756 192.167 19.2643C192.56 20.1529 192.764 21.1287 192.764 22.1567C192.764 23.1847 192.544 24.1953 192.088 25.2234C191.633 26.2514 191.004 27.1575 190.187 27.9416C189.118 29.0219 187.798 29.8234 186.226 30.3635C184.654 30.9037 182.863 31.1651 180.867 31.1651C179.468 31.1651 178.148 31.0257 176.906 30.7469C175.664 30.4681 174.171 29.9628 172.38 29.231C171.217 28.7779 170.337 28.4643 169.739 28.3075C169.126 28.1506 168.561 28.0635 168.026 28.0635C167.005 28.0635 166.124 28.3249 165.417 28.865C164.71 29.4052 164.223 30.1544 164.003 31.1302H163.248V17.3824H164.003C164.301 19.8218 165.307 22.0347 167.02 24.0211C168.042 25.1885 169.362 26.2688 170.949 27.262C172.553 28.2552 174.219 29.0393 175.963 29.5969C177.708 30.1544 179.374 30.4332 180.945 30.4332C182.344 30.4332 183.633 30.2067 184.796 29.7537C185.959 29.3007 186.87 28.6734 187.515 27.8544C188.159 27.0529 188.489 26.1294 188.489 25.1188C188.489 24.0385 188.049 23.0628 187.169 22.209C186.76 21.8256 186.242 21.4771 185.597 21.1461C184.953 20.815 184.12 20.484 183.098 20.1529C182.077 19.8218 180.678 19.4037 178.902 18.9332L176.733 18.3582C173.354 17.4696 171.012 16.7726 169.708 16.2673C168.246 15.7446 167.099 15.2218 166.266 14.6991C165.433 14.1764 164.71 13.5143 164.113 12.6953C163.217 11.5627 162.761 10.3082 162.761 8.94909C162.761 7.31121 163.264 5.83014 164.254 4.52332C165.244 3.2165 166.643 2.18847 168.435 1.45665C170.227 0.724827 172.207 0.358917 174.391 0.358917C177.692 0.358917 181.102 1.26498 184.639 3.05968C185.88 3.66953 186.729 3.96574 187.169 3.96574C188.301 3.96574 189.102 3.1468 189.589 1.52634V1.4915Z" fill="#3C152B"/>
<path d="M211.734 0.324097H212.536L224.716 26.3211C225.109 27.1226 225.549 27.8022 226.02 28.3249C226.508 28.8476 227.058 29.231 227.655 29.4575C228.268 29.684 228.975 29.806 229.808 29.806H230.61V30.6424H213.038V29.806H215.333C216.48 29.806 217.313 29.6492 217.832 29.353C218.366 29.0393 218.618 28.5689 218.618 27.9416C218.618 27.5408 218.508 27.0704 218.304 26.4954C218.099 25.9204 217.628 24.8923 216.92 23.4113C216.873 23.3242 216.81 23.1848 216.732 22.9931C216.638 22.8014 216.543 22.6098 216.449 22.4181L215.946 21.3378H203.121L202.147 23.5507C201.833 24.2999 201.675 25.0666 201.675 25.8333C201.675 26.4779 201.864 27.1226 202.225 27.7673C202.603 28.412 203.074 28.8825 203.671 29.2136C204.064 29.4401 204.41 29.5969 204.724 29.6666C205.039 29.7363 205.479 29.806 206.06 29.8234V30.6598H193.723V29.8234C194.619 29.7189 195.326 29.562 195.86 29.353C196.395 29.1439 196.976 28.778 197.62 28.2901C199.145 27.1226 200.654 24.9446 202.115 21.7211L211.734 0.341521V0.324097ZM209.439 7.27639L203.499 20.5188H215.522L209.424 7.27639H209.439Z" fill="#3C152B"/>
<path d="M266.396 1.09074H267.198L267.418 13.915H266.695C266.208 12.3642 265.752 11.1445 265.328 10.2211C264.903 9.29757 264.447 8.49606 263.945 7.79909C262.53 5.77787 260.738 4.17484 258.585 2.98999C256.416 1.80513 254.2 1.23013 251.921 1.23013C250.743 1.23013 249.564 1.43922 248.385 1.87483C247.206 2.31044 246.263 2.86802 245.54 3.58241C244.346 4.76726 243.466 6.38772 242.931 8.46121C242.397 10.5347 242.114 13.2006 242.114 16.4764C242.114 17.4521 242.161 18.4279 242.24 19.3862C242.334 20.3446 242.444 21.1984 242.586 21.9476C242.727 22.6968 242.916 23.4287 243.12 24.1431C243.34 24.8575 243.576 25.4499 243.843 25.9029C244.299 26.6347 244.802 27.2794 245.368 27.837C245.933 28.3946 246.609 28.865 247.379 29.2832C248.149 29.7014 248.967 29.9976 249.847 30.1893C250.727 30.381 251.623 30.4681 252.581 30.4681C253.807 30.4681 255.033 30.3113 256.259 30.015C257.485 29.7014 258.475 29.3181 259.23 28.8128C260.66 27.8544 261.383 26.565 261.383 24.9446V23.4112C261.383 19.8044 259.544 18.0097 255.882 18.0097H253.257V17.2256H273.972V18.0097H273.28C271.41 18.0097 270.027 18.4453 269.131 19.334C268.219 20.2226 267.779 21.5817 267.779 23.4112V30.381H266.978C266.333 29.7885 265.768 29.3878 265.28 29.1961C264.793 29.0044 264.196 28.8999 263.473 28.8999C262.844 28.8999 262.247 28.9522 261.713 29.0741C261.178 29.1961 260.408 29.4575 259.45 29.8582C257.878 30.4158 256.621 30.7817 255.693 30.9734C254.766 31.1651 253.634 31.2696 252.283 31.2696C249.737 31.2696 247.364 30.8863 245.163 30.137C242.963 29.3878 241.045 28.3249 239.411 26.931C237.776 25.537 236.519 23.9165 235.623 22.0522C234.727 20.1878 234.272 18.1665 234.272 16.0059C234.272 14.6991 234.444 13.4097 234.79 12.1377C235.136 10.8658 235.639 9.68091 236.283 8.6006C236.928 7.50287 237.745 6.47484 238.704 5.49908C239.835 4.40135 241.077 3.47787 242.429 2.72862C243.78 1.97938 245.21 1.40438 246.719 0.986193C248.228 0.56801 249.737 0.376343 251.246 0.376343C252.754 0.376343 254.216 0.56801 255.662 0.93392C257.108 1.29983 258.679 1.90968 260.393 2.74605C261.681 3.39074 262.577 3.70438 263.096 3.70438C263.614 3.70438 264.149 3.49529 264.667 3.09453C265.186 2.67635 265.752 2.01423 266.365 1.09074H266.396Z" fill="#3C152B"/>
<path d="M292.124 0.324097H292.926L305.106 26.3211C305.499 27.1226 305.939 27.8022 306.411 28.3249C306.898 28.8476 307.448 29.231 308.045 29.4575C308.658 29.684 309.365 29.806 310.198 29.806H311V30.6424H293.429V29.806H295.723C296.871 29.806 297.704 29.6492 298.222 29.353C298.757 29.0393 299.008 28.5689 299.008 27.9416C299.008 27.5408 298.898 27.0704 298.694 26.4954C298.49 25.9204 298.018 24.8923 297.311 23.4113C297.264 23.3242 297.201 23.1848 297.122 22.9931C297.028 22.8014 296.934 22.6098 296.839 22.4181L296.336 21.3378H283.512L282.537 23.5507C282.223 24.2999 282.066 25.0666 282.066 25.8333C282.066 26.4779 282.254 27.1226 282.616 27.7673C282.993 28.412 283.465 28.8825 284.062 29.2136C284.455 29.4401 284.8 29.5969 285.115 29.6666C285.429 29.7363 285.869 29.806 286.451 29.8234V30.6598H274.113V29.8234C275.009 29.7189 275.716 29.562 276.251 29.353C276.785 29.1439 277.367 28.778 278.011 28.2901C279.535 27.1226 281.044 24.9446 282.506 21.7211L292.124 0.341521V0.324097ZM289.83 7.27639L283.889 20.5188H295.912L289.814 7.27639H289.83Z" fill="#3C152B"/>
</svg>
