<svg width="30" height="27" viewBox="0 0 30 27" fill="none" xmlns="http://www.w3.org/2000/svg">
<path d="M14.7277 26.0571C22.8615 26.0571 29.4553 20.2847 29.4553 13.1641C29.4553 6.04342 22.8615 0.270996 14.7277 0.270996C6.5938 0.270996 0 6.04342 0 13.1641C0 20.2847 6.5938 26.0571 14.7277 26.0571Z" fill="black"/>
<path d="M22.9751 7.90456C22.9751 7.82815 22.9751 7.82816 22.8879 7.82816C22.6697 7.82816 22.4515 7.80906 22.2551 7.77085C21.4915 7.67535 18.9823 6.5293 18.5677 4.63832C18.5677 4.60012 18.4587 4.14169 18.4587 3.93159C18.4587 3.83608 18.4587 3.83608 18.3496 3.83608C18.3277 3.83608 18.3059 3.83608 18.2841 3.83608C17.3023 3.83608 16.3204 3.83608 15.3604 3.83608C15.164 3.83608 15.1858 3.81698 15.1858 3.98889C15.1858 7.69445 15.1858 11.4191 15.1858 15.1247C15.1858 15.2584 15.1858 15.3921 15.164 15.5449C15.0113 16.2707 14.5967 16.8247 13.8767 17.2067C13.2658 17.5314 12.5894 17.6269 11.8912 17.5123C11.673 17.4741 11.4548 17.3977 11.2366 17.3213C11.2148 17.3022 11.193 17.3022 11.193 17.2831C11.1275 17.2258 11.0403 17.1876 10.9748 17.1494C10.0802 16.5954 9.64387 15.8314 9.77478 14.8764C9.9057 13.9022 10.5384 13.2528 11.5857 12.909C11.8912 12.8135 12.2185 12.7753 12.5676 12.7753C12.7858 12.7944 13.004 12.8135 13.2003 12.8517C13.2658 12.8708 13.3094 12.8517 13.3094 12.7753C13.3094 12.7562 13.3094 12.7371 13.3094 12.6989C13.3094 12.0303 13.2876 10.5787 13.2876 10.5787C13.2876 10.3877 13.2876 10.1967 13.2876 10.0056C13.2876 9.94835 13.2658 9.94835 13.2003 9.92925C12.8076 9.89105 12.4149 9.87194 12.0221 9.91015C11.4766 9.94835 10.953 10.0439 10.4293 10.2158C9.60023 10.4832 8.88021 10.8843 8.24747 11.4191C7.702 11.8775 7.28745 12.4124 6.98198 13.0045C6.67652 13.5775 6.52379 14.1887 6.48015 14.8C6.45834 15.0674 6.45833 15.3539 6.50197 15.6213C6.54561 16.0033 6.63288 16.3662 6.7638 16.7291C7.13471 17.7606 7.83291 18.6201 8.79294 19.2887C8.90203 19.3651 8.98931 19.4415 9.09841 19.4797C9.14204 19.5179 9.2075 19.5561 9.25114 19.5943C9.40387 19.6898 9.57842 19.7853 9.75297 19.8617C10.8439 20.3392 11.9785 20.5302 13.2003 20.3965C14.7713 20.2246 16.0804 19.6134 17.1059 18.5819C18.0659 17.5887 18.5459 16.4426 18.5459 15.1438C18.5678 13.291 18.5459 11.4382 18.5459 9.60454C18.5459 9.56633 18.5241 9.48993 18.5677 9.47083C18.6114 9.45173 18.655 9.50903 18.6987 9.52813C19.4841 9.98655 20.3351 10.3113 21.2515 10.4832C21.7751 10.5978 22.3206 10.6551 22.866 10.6551C23.0406 10.6551 23.0624 10.6551 23.0624 10.5023C23.0188 9.87194 22.9751 8.07646 22.9751 7.90456Z" fill="white"/>
</svg>
